<?xml version="1.0" encoding="utf-8"?>
<!-- Generator: Adobe Illustrator 23.0.1, SVG Export Plug-In . SVG Version: 6.00 Build 0)  -->
<svg version="1.1" id="Layer_1" xmlns="http://www.w3.org/2000/svg" xmlns:xlink="http://www.w3.org/1999/xlink" x="0px" y="0px"
	 viewBox="0 0 1757.42 3592" style="enable-background:new 0 0 1757.42 3592;" xml:space="preserve">
<style type="text/css">
	.st0{fill:#FF9CC7;}
</style>
<g>
	<rect x="-35" y="0.31" class="st0" width="1832.05" height="30"/>
</g>
<g>
	<rect x="-35" y="90.31" class="st0" width="1832.05" height="30"/>
</g>
<g>
	<rect x="-35" y="180.31" class="st0" width="1832.05" height="30"/>
</g>
<g>
	<rect x="-35" y="270.31" class="st0" width="1832.05" height="30"/>
</g>
<g>
	<rect x="-35" y="360.31" class="st0" width="1832.05" height="30"/>
</g>
<g>
	<rect x="-35" y="450.31" class="st0" width="1832.05" height="30"/>
</g>
<g>
	<rect x="-35" y="540.31" class="st0" width="1832.05" height="30"/>
</g>
<g>
	<rect x="-35" y="630.31" class="st0" width="1832.05" height="30"/>
</g>
<g>
	<rect x="-35" y="720.31" class="st0" width="1832.05" height="30"/>
</g>
<g>
	<rect x="-35" y="810.31" class="st0" width="1832.05" height="30"/>
</g>
<g>
	<rect x="-35" y="900.31" class="st0" width="1832.05" height="30"/>
</g>
<g>
	<rect x="-35" y="990.31" class="st0" width="1832.05" height="30"/>
</g>
<g>
	<rect x="-35" y="1080.31" class="st0" width="1832.05" height="30"/>
</g>
<g>
	<rect x="-35" y="1170.31" class="st0" width="1832.05" height="30"/>
</g>
<g>
	<rect x="-35" y="1260.31" class="st0" width="1832.05" height="30"/>
</g>
<g>
	<rect x="-35" y="1350.31" class="st0" width="1832.05" height="30"/>
</g>
<g>
	<rect x="-35" y="1440.31" class="st0" width="1832.05" height="30"/>
</g>
<g>
	<rect x="-35" y="1530.31" class="st0" width="1832.05" height="30"/>
</g>
<g>
	<rect x="-35" y="1620.31" class="st0" width="1832.05" height="30"/>
</g>
<g>
	<rect x="-35" y="1710.31" class="st0" width="1832.05" height="30"/>
</g>
<g>
	<rect x="-35" y="1800" class="st0" width="1832.05" height="30"/>
</g>
<g>
	<rect x="-35" y="1890" class="st0" width="1832.05" height="30"/>
</g>
<g>
	<rect x="-35" y="1980" class="st0" width="1832.05" height="30"/>
</g>
<g>
	<rect x="-35" y="2070" class="st0" width="1832.05" height="30"/>
</g>
<g>
	<rect x="-35" y="2160" class="st0" width="1832.05" height="30"/>
</g>
<g>
	<rect x="-35" y="2250" class="st0" width="1832.05" height="30"/>
</g>
<g>
	<rect x="-35" y="2340" class="st0" width="1832.05" height="30"/>
</g>
<g>
	<rect x="-35" y="2430" class="st0" width="1832.05" height="30"/>
</g>
<g>
	<rect x="-35" y="2520" class="st0" width="1832.05" height="30"/>
</g>
<g>
	<rect x="-35" y="2610" class="st0" width="1832.05" height="30"/>
</g>
<g>
	<rect x="-35" y="2700" class="st0" width="1832.05" height="30"/>
</g>
<g>
	<rect x="-35" y="2790" class="st0" width="1832.05" height="30"/>
</g>
<g>
	<rect x="-35" y="2880" class="st0" width="1832.05" height="30"/>
</g>
<g>
	<rect x="-35" y="2970" class="st0" width="1832.05" height="30"/>
</g>
<g>
	<rect x="-35" y="3060" class="st0" width="1832.05" height="30"/>
</g>
<g>
	<rect x="-35" y="3150" class="st0" width="1832.05" height="30"/>
</g>
<g>
	<rect x="-35" y="3240" class="st0" width="1832.05" height="30"/>
</g>
<g>
	<rect x="-35" y="3330" class="st0" width="1832.05" height="30"/>
</g>
<g>
	<rect x="-35" y="3420" class="st0" width="1832.05" height="30"/>
</g>
<g>
	<rect x="-35" y="3510" class="st0" width="1832.05" height="30"/>
</g>
</svg>
